<?xml version="1.0" encoding="utf-8"?>
<!-- Generator: Adobe Illustrator 25.4.1, SVG Export Plug-In . SVG Version: 6.00 Build 0)  -->
<svg version="1.1" id="Capa_1" xmlns="http://www.w3.org/2000/svg" xmlns:xlink="http://www.w3.org/1999/xlink" x="0px" y="0px"
	 viewBox="0 0 11 12.4" style="enable-background:new 0 0 11 12.4;" xml:space="preserve">
<style type="text/css">
	.st0{fill:#DA0032;stroke:#FFFFFF;stroke-width:0.7264;}
</style>
<path class="st0" d="M1.2,0.8C1.5,0.7,1.8,0.7,2,0.9h0l7.9,5.8L10,6.8c0.2,0.2,0.3,0.5,0.2,0.8C10.1,7.8,9.9,8,9.6,8L9.5,8l-4.1,0
	c0,0,0,0,0,0c0,0,0,0,0,0L3,11.3c-0.2,0.3-0.5,0.4-0.8,0.3c-0.3-0.1-0.5-0.3-0.6-0.7L0.8,1.5v0C0.8,1.2,1,0.9,1.2,0.8z"/>
</svg>
