<?xml version="1.0" encoding="utf-8"?>
<!-- Generator: Adobe Illustrator 25.4.1, SVG Export Plug-In . SVG Version: 6.00 Build 0)  -->
<svg version="1.1" id="Capa_1" xmlns="http://www.w3.org/2000/svg" xmlns:xlink="http://www.w3.org/1999/xlink" x="0px" y="0px"
	 viewBox="0 0 9 9.7" style="enable-background:new 0 0 9 9.7;" xml:space="preserve">
<style type="text/css">
	.st0{fill:#DA0032;stroke:#FFFFFF;stroke-width:0.561;}
</style>
<path class="st0" d="M1.6,0.7c0.2-0.1,0.4-0.1,0.6,0.1h0l6.1,4.5l0.1,0.1c0.2,0.2,0.2,0.4,0.1,0.6C8.5,6.1,8.4,6.2,8.2,6.3l-0.1,0
	l-3.2,0c0,0,0,0,0,0c0,0,0,0,0,0L3,8.8C2.9,9,2.6,9.1,2.4,9C2.2,9,2,8.8,1.9,8.5L1.3,1.3v0C1.3,1,1.4,0.8,1.6,0.7z"/>
</svg>
